<svg id="Capa_1" enable-background="new 0 0 512 512" height="512" viewBox="0 0 512 512" width="512" xmlns="http://www.w3.org/2000/svg"><g><path d="m256 0c-141.61 0-256 114.43-256 256 0 51.85 15.51 101.61 44.93 144.44l-41.16 106.68 111.19-37.68c42.03 27.87 90.63 42.56 141.04 42.56 141.61 0 256-114.43 256-256 0-141.61-114.43-256-256-256z" fill="#54e360"/><path d="m512 256c0 141.57-114.39 256-256 256v-512c141.57 0 256 114.39 256 256z" fill="#00cc71"/><path d="m256 211c-24.81 0-45 20.19-45 45s20.19 45 45 45 45-20.19 45-45-20.19-45-45-45z" fill="#f2f2f2"/><path d="m301 256c0 24.81-20.19 45-45 45v-90c24.81 0 45 20.19 45 45z" fill="#e7e7f3"/><path d="m376 301c-24.813 0-45-20.187-45-45s20.187-45 45-45 45 20.187 45 45-20.187 45-45 45z" fill="#e7e7f3"/><path d="m136 301c-24.813 0-45-20.187-45-45s20.187-45 45-45 45 20.187 45 45-20.187 45-45 45z" fill="#f2f2f2"/></g></svg>