<?xml version="1.0" encoding="utf-8"?>
<!-- Generator: Adobe Illustrator 24.0.1, SVG Export Plug-In . SVG Version: 6.00 Build 0)  -->
<svg version="1.1" xmlns="http://www.w3.org/2000/svg" xmlns:xlink="http://www.w3.org/1999/xlink" x="0px" y="0px"
	 viewBox="0 0 1400 980" style="enable-background:new 0 0 1400 980;" xml:space="preserve">
<style type="text/css">
	.st0{fill:#2899E5;}
	.st1{fill:#268BC4;}
	.st2{fill:#1578AF;}
	.st3{fill:#E6E7E8;}
	.st4{clip-path:url(#SVGID_2_);fill:#0F6991;}
	.st5{clip-path:url(#SVGID_2_);fill:#1578AF;}
	.st6{clip-path:url(#SVGID_2_);}
	.st7{fill:#EA7171;}
	.st8{fill:#FF9999;}
	.st9{fill:#D85252;}
	.st10{fill:#231F20;}
	.st11{fill:#323132;}
	.st12{fill:#BBBDC0;}
	.st13{fill:none;stroke:#2899E5;stroke-width:2;stroke-linecap:round;stroke-linejoin:round;stroke-miterlimit:10;}
	.st14{fill:#9A9A9B;}
	.st15{fill:#F6B3C7;}
	.st16{opacity:0.7;clip-path:url(#SVGID_2_);fill:#848484;}
	.st17{opacity:0.8;clip-path:url(#SVGID_2_);}
</style>
<g id="Layer_1">
	<rect class="st0" width="1400" height="980"/>
</g>
<g id="Layer_2">
	<rect x="225.3" y="597" class="st1" width="229.4" height="383"/>
	<rect x="454.7" y="859" class="st1" width="229.4" height="121"/>
	<rect x="592.2" y="898.3" class="st0" width="52.5" height="52.5"/>
	<rect x="516.9" y="898.3" class="st0" width="52.5" height="52.5"/>
	<rect x="644.7" y="457" class="st1" width="398.3" height="523"/>
	<rect x="764.6" y="481.1" class="st0" width="52.5" height="52.5"/>
	<rect x="764.6" y="553.8" class="st0" width="52.5" height="52.5"/>
	<path class="st2" d="M485.5,355.8c9.1-7.8,19.5,0.2,21.3,10.3c15.6-12.4,21.7,1.7,31.3,11.4c12.4,12.6,41.6,2.6,57.3,10
		c-38.1,5.3-89.7,8.1-127.9,6.3c-18.7-0.9-37.6-1.7-56-2.6c-18.4-0.9-37.1-4.5-55.3-0.1c15.6-8.1,35.6-0.7,50.4-10.3
		c9.9-6.4,12.1-17.8,17.7-27.4C441.2,324.5,472.4,326.8,485.5,355.8z"/>
	<path id="right_x5F_cloud" class="st3" d="M1303.2,236.4c6.6-5.7,14.3,0.1,15.6,7.6c11.5-9.1,15.9,1.3,22.9,8.3
		c9.1,9.2,30.4,1.9,42,7.3c-27.9,3.9-65.7,5.9-93.7,4.6c-13.7-0.7-27.5-1.2-41-1.9c-13.5-0.7-27.2-3.3-40.5-0.1
		c11.5-6,26.1-0.5,36.9-7.6c7.3-4.7,8.9-13.1,13-20.1C1270.7,213.4,1293.6,215.2,1303.2,236.4z"/>
	
		<image style="overflow:visible;" width="607" height="624" xlink:href="82782713.jpg"  transform="matrix(1 0 0 1 -978.0796 145.6675)">
	</image>
	<g>
		<defs>
			<rect id="SVGID_1_" width="1400" height="980"/>
		</defs>
		<clipPath id="SVGID_2_">
			<use xlink:href="#SVGID_1_"  style="overflow:visible;"/>
		</clipPath>
		<path class="st4" d="M1455.9,477.8c-45.3-17.9-123.7-1.5-120.5,56.6c-23.5-1.5-55.9,5.3-77,16.1c-32.6,16.5-24.1,40.6-39.5,65.3
			c-14.3,22.9-48.8,17.9-66.8,41.9c-18.7,24.8-12.2,62-23.9,86c-47.6-29.5-104.7,45-122.3,79.4c-14,27.3-27.3,60.6-32.9,89.8
			c-4,20.5-10.5,23,8.9,33.1c15.7,8.2,47.9-4.1,63.6-5.5c115.8-10.5,246.7,27.2,344.5-53.6c66.2-54.8,86.1-156.6,90-237.1
			c1.9-38.4,5-112.7-39-129.9L1455.9,477.8z"/>
		<path class="st4" d="M-23.1,278.7c41.6-23.5,108.8,25.5,105.5,71.6c61.4,3.3,136.8,42.2,111.7,117.7
			c53.3,0.1,91.1,98.9,68.2,140.9c45.1,23.5,86.6,77.9,63.2,131.3c93.4,58.4,122.7,184.8,95,291.3c-29.1,13.2-97.9,5.7-129.3-0.5
			c-49.4-9.7-95.8-16.8-145.5-28.5C66.5,983.8-15.2,939-50.1,861.6c-46.2-102.7-66.9-206.4-63-318.8c1.3-36.5,5-73.3,11.9-108.7
			c5.7-29,12-87.8,33.1-107.3L-23.1,278.7z"/>
		<path class="st5" d="M1188.4,813.5c-28.7-7-57.1,1.8-80.6,21.2c-13,10.8-21.6,33.7-33.8,42.2c-14.7,10.2-13.7,3.2-32.3,5.9
			c-71.1,10.4-114.5,100.5-149.8,155.5c50.3,19.6,100.2,17.7,153.1,24.8c37.7,5,73.3,0.4,110.1,11.9c31.1,9.7,47.9,9.2,79.5,8.8
			c43.2-0.5,86.5,15.7,128.3,3.2c19.3-5.8,39.5-9.6,60-15.8c25.9-7.8,25.6-14.9,38.2-38.5c34.9-65.6,46.3-144.3,48.4-217.8
			c1.6-55.8,8-151.4-57.5-175c-25.5-9.2-55.6-3.3-80.8,3.8c-16.5,4.6-35.7,10-49,21.5c-11.7,10.1-15.1,27.8-25,35.2
			c-22.2,16.6-51.8,11.3-73.9,36.3C1218.3,742.6,1182,811.9,1188.4,813.5z"/>
		<path class="st5" d="M47.4,567c57.6,5.3,101.7,64.9,99,120c28.9,6.3,52.2,11.5,76.9,31.3c12.3,9.9,21.6,19,29.9,32.3
			c4.5,7.2,7.6,28.2,12.6,32.9c16.6,15.5,55.7,11.8,78.2,32.8c19.8,18.4,35.8,43.8,45.5,68.9c78.8-21.7,172.6,100.1,185,167.9
			c-44.1,1.1-86.8,1.9-128.6,15.5c-62.7,20.3-129.8,6.8-194.7,6c-45.6-0.6-90.8-7.1-136.1-9c-46.5-2-116.4,13.9-155.3-14.9
			c-81.4-60.3-54-179.2-51-264.5c3.4-94.7-50.6-231.9-2.3-318.5c19.6-35.1,54.4-53.4,91-30.5C41.9,464.8,44.9,520.6,47.4,567z"/>
		<g class="st6">
			<g>
				<g>
					<path class="st7" d="M632,838.9c-7.9-6.7-16.6-12-25.9-16.4c-8.1-3.9-16.4-7.2-24.5-11c-3.2-1.5-6.4-3-9.3-5
						c-2.7-1.8-5.2-3.7-7.8-5.7c-0.1-0.1-2.8-2.2-2.8-2.2c-1.1-0.9-2.2-1.7-3.3-2.6c-23.5-19.1-43.6-41.4-64.5-63.2
						c-5.2-5.4-10.3-10.8-14.9-16.6c-0.5-0.7-1.8-2.3-1.9-2.5c-1-1.4-2.1-2.8-3.1-4.2c-2-2.9-4-5.7-5.9-8.6c-0.3-0.5-0.7-1-1-1.5
						c-5.3-34.6,4.4-70.6,30.7-98c45.4-47.3-8.3,9.7,54.7-8.4c39.3-11.3,112.4,31.2,128.3,58.8c30.2,52.4,54.9,91,54.9,91
						c45.4,47.4,15,29.7-30.4,77.1c-18.6,19.4-39.8,28.7-63.3,31.4C639.6,846.7,636.3,842.5,632,838.9z"/>
				</g>
				<g>
					<path class="st8" d="M549.5,602.1c39.3-11.3,112.4,31.2,128.3,58.8c30.2,52.4,54.9,91,54.9,91c14.1,14.7,20.9,23.1,22.2,29.2
						c7.1-7.3,3.2-14.9-19.2-38.2c0,0-24.7-38.6-54.9-91c-15.9-27.6-89-70.1-128.3-58.8c-63,18.1-9.3-39-54.7,8.4
						c-13.5,14.1-22.6,30.5-27.6,47.8c5.3-13.9,13.5-27.1,24.6-38.8C540.2,563.1,486.5,620.1,549.5,602.1z"/>
					<path class="st8" d="M705.3,819.9c-18.6,19.4-39.8,28.7-63.3,31.4c-2.5-4.6-5.8-8.8-10-12.4c-7.9-6.7-16.6-12-25.9-16.4
						c-8.1-3.9-16.4-7.2-24.5-11c-3.2-1.5-6.4-3-9.3-5c-2.7-1.8-5.2-3.7-7.8-5.7c-0.1-0.1-2.8-2.2-2.8-2.2c-1.1-0.9-2.2-1.7-3.3-2.6
						c-23.5-19.1-43.6-41.4-64.5-63.2c-5.2-5.4-10.3-10.8-14.9-16.6c-0.5-0.7-1.8-2.3-1.9-2.5c-1-1.4-2.1-2.8-3.1-4.2
						c-2-2.9-4-5.7-5.9-8.6c-0.3-0.5-0.7-1-1-1.5c-2.6-16.8-1.6-33.9,3.1-50.3c-7.2,19-9.1,39.3-6.1,59.3c0.3,0.5,0.7,1,1,1.5
						c1.9,2.9,3.9,5.8,5.9,8.6c1,1.4,2,2.8,3.1,4.2c0.1,0.1,1.3,1.8,1.9,2.5c4.6,5.8,9.7,11.3,14.9,16.6
						c20.9,21.8,41,44.1,64.5,63.2c1.1,0.9,2.2,1.8,3.3,2.6c0,0,2.7,2.1,2.8,2.2c2.6,1.9,5.1,3.9,7.8,5.7c2.9,2,6.1,3.5,9.3,5
						c8.1,3.8,16.4,7.1,24.5,11c9.3,4.4,18,9.7,25.9,16.4c4.3,3.6,7.6,7.8,10,12.4c23.4-2.7,44.7-12,63.3-31.4
						c31.3-32.6,55.4-34.4,52.5-47.9C747.5,788.6,728.3,795.9,705.3,819.9z"/>
				</g>
				<g>
					<path class="st9" d="M665.8,885.5c-97.5-27-182.9-148.1-182.9-148.1c-36.4-38-10.7-47.4,25.8-85.4c36.4-38,63.9-31.6,100.3,6.4
						c0,0,46.3,6.8,60.3,48c22.4,66,43.1,100.1,6.7,138.1C657.8,863.6,689.7,885.5,665.8,885.5z"/>
				</g>
				<g>
					<g>
						<path class="st7" d="M401.8,772.7c7.9-6.7,16.6-12,25.9-16.4c8.1-3.9,16.4-7.2,24.5-11c3.2-1.5,6.4-3,9.3-5
							c2.7-1.8,5.2-3.7,7.8-5.7c0.1-0.1,2.8-2.2,2.8-2.2c1.1-0.9,2.2-1.7,3.3-2.6c23.5-19.1,43.6-41.4,64.5-63.2
							c5.2-5.4,10.3-10.8,14.9-16.6c0.5-0.7,1.8-2.3,1.9-2.5c1-1.4,2.1-2.8,3.1-4.2c2-2.9,4-5.7,5.9-8.6c0.3-0.5,0.7-1,1-1.5
							c5.3-34.6-4.4-70.6-30.7-98c-45.4-47.3,8.3,9.7-54.7-8.4c-39.3-11.3-124,28.7-140,56.3c-30.2,52.4-34.8,72.7-43.2,93.5
							c-24.6,60.8-15,29.7,30.4,77.1c18.6,19.4,39.8,28.7,63.3,31.4C394.2,780.5,397.6,776.3,401.8,772.7z"/>
					</g>
					<path class="st7" d="M540.7,544.5c-45.4-47.3,8.3,9.7-54.7-8.4c-39.3-11.3-124,28.7-140,56.3c-22,38.3-30.5,59.4-36.7,76.1
						c20.7-10,45.8-0.5,73.1-19.5c22.6,22.6,17.7,84.3-4.9,106.9L4.8,1131.4c-11.3,11.3-25.3,17.8-40.1,17.8
						c-14.8,0-28.8-4.8-40.1-16.1c-3.2-3.2-5.9-6.6-8.1-10.2c2.7,7.1,7,13.8,12.8,19.6c11.3,11.3,25.3,16.1,40.1,16.1
						c14.8,0,28.8-6.4,40.1-17.8l353.4-355.8c10.6,5.1,21.8,8.2,33.6,9.5c2.5-4.6,5.8-8.8,10-12.4c7.9-6.7,16.6-12,25.9-16.4
						c8.1-3.9,16.4-7.2,24.5-11c3.2-1.5,6.4-3,9.3-5c2.7-1.8,5.2-3.7,7.8-5.7c0.1-0.1,2.8-2.2,2.8-2.2c1.1-0.9,2.2-1.7,3.3-2.6
						c23.5-19.1,43.6-41.4,64.5-63.2c5.2-5.4,10.3-10.8,14.9-16.6c0.5-0.7,1.8-2.3,1.9-2.5c1-1.4,2.1-2.8,3.1-4.2
						c2-2.9,4-5.7,5.9-8.6c0.3-0.5,0.7-1,1-1.5C576.7,607.9,567,572,540.7,544.5z"/>
					<g>
						<path class="st9" d="M390.4,805.8c60.5-30,80.8-55.8,99-74.8l32.5-10.8c36.4-38,39.6-96.4,3.2-134.4
							c-36.4-38-63.9-31.6-100.3,6.4c0,0-46.3,6.8-60.3,48c-22.4,66-43.1,100.1-6.7,138.1C376,797.4,366.5,805.8,390.4,805.8z"/>
					</g>
					<g>
						<path class="st7" d="M-35.4,1149.1c14.8,0,28.8-6.4,40.1-17.8L377.6,756c22.6-22.6,27.5-84.3,4.9-106.9
							c-32.5,22.5-61.7,4.9-84.3,27.5L-74.6,1052c-22.6,22.6-23.4,58.4-0.8,81C-64.2,1144.3-50.2,1149.1-35.4,1149.1z"/>
					</g>
					<g>
						<path class="st8" d="M-70,1061.3l372.8-375.4c2.3-5.6,4.3-11.2,6.6-17.4c-3.9,1.9-7.6,4.5-11.2,8L-74.6,1052
							c-19.4,19.4-22.8,48.6-9,70.8C-91.5,1102.2-86.8,1078.1-70,1061.3z"/>
					</g>
					<g>
						<path class="st8" d="M346,592.4c15.9-27.6,100.6-67.6,140-56.3c63,18.1,9.3-39,54.7,8.4c7.1,7.4,12.9,15.4,17.6,23.8
							c-5.3-11.9-12.7-23.1-22.3-33.1c-45.4-47.3,8.3,9.7-54.7-8.4c-39.3-11.3-124,28.7-140,56.3c-30.2,52.4-34.8,72.7-43.2,93.5
							c-4.1,10.1-7.2,17.7-9.4,23.5l14.1-14.2C311.2,665.1,315.9,644.8,346,592.4z"/>
					</g>
					<path class="st7" d="M394,731.1c15.1,21.8,12,51.2-7.6,70.8l-364.4,367c-11,11-24.6,17.3-39.1,17.3c-11.4,0-22.3-3-31.8-9.7
						L394,731.1z"/>
					
						<rect x="209" y="757.3" transform="matrix(0.6746 -0.7382 0.7382 0.6746 -544.6594 452.1379)" class="st10" width="63" height="173.2"/>
				</g>
				<path class="st11" d="M628.8,785.8c0,11-9,20-20,20H405.5c-11,0-20-9-20-20V380.4c0-11,9-20,20-20h203.4c11,0,20,9,20,20V785.8z
					"/>
				<path class="st10" d="M628.8,765.1c0,11-9,20-20,20H405.5c-11,0-20-9-20-20V359.6c0-11,9-20,20-20h203.4c11,0,20,9,20,20V765.1z
					"/>
				<rect x="491.2" y="367" class="st11" width="32" height="6"/>
				<circle class="st11" cx="507.2" cy="355.3" r="4"/>
				<path class="st11" d="M523.8,756.3c0,9.2-7.5,16.7-16.7,16.7s-16.7-7.5-16.7-16.7c0-9.2,7.5-16.7,16.7-16.7
					S523.8,747.1,523.8,756.3z"/>
				<rect x="401.2" y="386.6" class="st3" width="212" height="344.5"/>
				<rect x="401.2" y="557.1" class="st12" width="212" height="3.5"/>
				<rect x="427.1" y="564.3" class="st12" width="160.1" height="17.8"/>
				<g>
					<path class="st12" d="M509.3,445.7c0,4.3-3.5,7.8-7.8,7.8h-87.2c-4.3,0-7.8-3.5-7.8-7.8v-11.3c0-4.3,3.5-7.8,7.8-7.8h87.2
						c4.3,0,7.8,3.5,7.8,7.8V445.7z"/>
					<polygon class="st12" points="419.9,452.7 413.1,457.7 413.1,452.7 					"/>
				</g>
				<g>
					<path class="st0" d="M505,507.1c0,4.3,3.5,7.8,7.8,7.8H600c4.3,0,7.8-3.5,7.8-7.8v-11.3c0-4.3-3.5-7.8-7.8-7.8h-87.2
						c-4.3,0-7.8,3.5-7.8,7.8V507.1z"/>
					<polygon class="st0" points="594.4,514.1 601.2,519 601.2,514.1 					"/>
				</g>
				<g>
					<polygon class="st12" points="419.7,477.5 412.9,482.5 412.9,477.5 					"/>
					<path class="st12" d="M492.7,471.4c0,4-3.2,7.2-7.2,7.2h-71.9c-4,0-7.2-3.2-7.2-7.2l0,0c0-4,3.2-7.2,7.2-7.2h71.9
						C489.5,464.2,492.7,467.4,492.7,471.4L492.7,471.4z"/>
				</g>
				<g>
					<polygon class="st12" points="419.7,538 412.9,543 412.9,538 					"/>
					<path class="st12" d="M440.7,531.8c0,4.3-3.5,7.8-7.8,7.8h-18.2c-4.3,0-7.8-3.5-7.8-7.8l0,0c0-4.3,3.5-7.8,7.8-7.8H433
						C437.3,524,440.7,527.5,440.7,531.8L440.7,531.8z"/>
					<g>
						<circle class="st3" cx="416.2" cy="531.8" r="1.6"/>
						<circle class="st3" cx="431.6" cy="531.8" r="1.6"/>
					</g>
					<circle class="st3" cx="423.9" cy="531.8" r="1.6"/>
				</g>
				<rect x="401.2" y="386.6" class="st12" width="212" height="26.4"/>
				<rect x="576.5" y="401.5" class="st0" width="31.3" height="3.3"/>
				<g>
					<rect x="414.9" y="401.5" class="st0" width="31.3" height="3.3"/>
					<polyline class="st13" points="409.6,399.8 406.5,403.3 409.6,406.5 					"/>
				</g>
				<rect x="401.2" y="586.3" class="st12" width="212" height="144.7"/>
				<g>
					<g>
						<rect x="406.5" y="594.4" class="st3" width="15.8" height="23"/>
						<rect x="427.1" y="594.4" class="st3" width="15.8" height="23"/>
						<rect x="447.7" y="594.4" class="st3" width="15.8" height="23"/>
						<rect x="468.3" y="594.4" class="st3" width="15.8" height="23"/>
						<rect x="488.9" y="594.4" class="st3" width="15.8" height="23"/>
						<rect x="509.6" y="594.4" class="st3" width="15.8" height="23"/>
						<rect x="530.2" y="594.4" class="st3" width="15.8" height="23"/>
						<rect x="550.8" y="594.4" class="st3" width="15.8" height="23"/>
						<rect x="571.4" y="594.4" class="st3" width="15.8" height="23"/>
						<rect x="592" y="594.4" class="st3" width="15.8" height="23"/>
					</g>
					<g>
						<rect x="416.8" y="629.5" class="st3" width="15.8" height="23"/>
						<rect x="437.4" y="629.5" class="st3" width="15.8" height="23"/>
						<rect x="458" y="629.5" class="st3" width="15.8" height="23"/>
						<rect x="478.6" y="629.5" class="st3" width="15.8" height="23"/>
						<rect x="499.2" y="629.5" class="st3" width="15.8" height="23"/>
						<rect x="519.9" y="629.5" class="st3" width="15.8" height="23"/>
						<rect x="540.5" y="629.5" class="st3" width="15.8" height="23"/>
						<rect x="561.1" y="629.5" class="st3" width="15.8" height="23"/>
						<rect x="581.7" y="629.5" class="st3" width="15.8" height="23"/>
					</g>
					<g>
						<rect x="406.5" y="663.7" class="st3" width="22.8" height="23"/>
						<rect x="406.5" y="698.8" class="st14" width="20.6" height="23"/>
						<rect x="432.6" y="698.8" class="st14" width="20.6" height="23"/>
						<rect x="458" y="698.8" class="st3" width="15.8" height="23"/>
						<rect x="437.4" y="663.7" class="st3" width="15.8" height="23"/>
						<rect x="458" y="663.7" class="st3" width="15.8" height="23"/>
						<rect x="478.6" y="663.7" class="st3" width="15.8" height="23"/>
						<rect x="499.2" y="663.7" class="st3" width="15.8" height="23"/>
						<rect x="519.9" y="663.7" class="st3" width="15.8" height="23"/>
						<rect x="540.5" y="663.7" class="st3" width="15.8" height="23"/>
						<rect x="561.1" y="663.7" class="st3" width="15.8" height="23"/>
						<rect x="561.1" y="698.8" class="st14" width="46.8" height="23"/>
						<rect x="478.6" y="698.8" class="st3" width="77.7" height="23"/>
					</g>
					<rect x="585.1" y="663.7" class="st3" width="22.8" height="23"/>
					<polygon class="st12" points="417.3,568.4 417.3,565.6 411.5,565.6 411.5,568.4 407,568.4 407,577.7 421.8,577.7 421.8,568.4 
											"/>
					<path class="st3" d="M416.8,572.9c0,1.7-1.4,3.1-3.1,3.1c-1.7,0-3.1-1.4-3.1-3.1c0-1.7,1.4-3.1,3.1-3.1
						C415.4,569.9,416.8,571.2,416.8,572.9z"/>
				</g>
				<g>
					<g>
						<path id="XMLID_3_" class="st7" d="M416.1,680.8c6.4,1.2,13.6,0.5,19.4-3.4l48-30.6c11.6-7.9,13.8-24.9,5.9-36.5
							c-7.9-11.6-23.8-14.8-35.4-6.9l-48,30.7c-11.6,7.9-14.3,24.1-6.5,35.7C403.6,675.5,409.8,679.6,416.1,680.8z"/>
					</g>
					<path class="st7" d="M431,617.9c-30.5,20-80.5,47.5-102.9,73.8c-20.5,24-43.6,46.4-79.5,61.9c6,10.7,9.4,22.7,12.8,34.4
						c0.4,1.4,0.9,2.9,1.3,4.4l117.6-21.8C380.3,770.5,449.2,605.9,431,617.9z"/>
					<polygon id="XMLID_2_" class="st7" points="406.4,665.8 489.4,610.3 473.7,590 412.2,630.1 					"/>
					<path id="XMLID_1_" class="st15" d="M470.2,592.2c5.4,8.4,2.8,18.3-5.2,23.6l-13.3,8.6l-9.1-14.2L470.2,592.2z"/>
					<path class="st7" d="M323.4,863.6c0,0,33.1-12.2,63.5-52.8c29.3-39.1,31.2-110.3,58.3-139.6L300.5,687L323.4,863.6z"/>
				</g>
				<g>
					<g>
						<path class="st7" d="M1069.2,1215.4c-14.8,0-28.8-6.4-40.1-17.8L656.3,822.3c-22.6-22.6-27.5-84.3-4.9-106.9
							c32.5,22.5,61.7,4.9,84.3,27.5l372.8,375.4c22.6,22.6,23.4,58.4,0.8,81C1098,1210.6,1084,1215.4,1069.2,1215.4z"/>
					</g>
					<g>
						<path class="st8" d="M1108.5,1118.2L735.7,742.8c-11.8-11.8-25.4-12.6-40.3-14c1.3,1.1,2.6,2.2,3.9,3.4
							c2.8,2.4,5.9,4.9,8.8,7.4c8.8,1.6,17.1,4.7,24.6,12.2l372.8,375.4c14.9,14.9,20.3,35.6,15.8,54.4
							C1130.3,1160.6,1125.8,1135.6,1108.5,1118.2z"/>
						<path class="st8" d="M1109.3,1199.3c-11.3,11.3-25.3,16.1-40.1,16.1c-14.8,0-28.8-6.4-40.1-17.8L656.3,822.3
							c-17-17-24-56.2-16.8-84.2c-11.7,27.8-5.2,74.2,13.8,93.2l372.8,375.4c11.3,11.3,25.3,17.8,40.1,17.8
							c14.8,0,28.8-4.8,40.1-16.1c7.7-7.7,12.7-16.9,15-26.7C1118.6,1188,1114.6,1194,1109.3,1199.3z"/>
					</g>
					<path class="st7" d="M639.8,797.3c-15.1,21.8-12,51.2,7.6,70.8l364.4,367c11,11,24.6,17.3,39.1,17.3c11.4,0,22.3-3,31.8-9.7
						L639.8,797.3z"/>
				</g>
				<g>
					<g>
						<path id="XMLID_6_" class="st7" d="M617.7,747c-6.4,1.2-13.6,0.5-19.4-3.4l-48-30.6c-11.6-7.9-13.8-24.9-5.9-36.5
							c7.9-11.6,23.8-14.8,35.4-6.9l48,30.7c11.6,7.9,14.3,24.1,6.5,35.7C630.3,741.8,624.1,745.8,617.7,747z"/>
					</g>
					<path class="st7" d="M602.8,684.1c30.5,20,80.5,47.5,102.9,73.8c20.5,24,43.6,46.4,79.5,61.9c-6,10.7-9.4,22.7-12.8,34.4
						c-0.4,1.4-0.9,2.9-1.3,4.4l-117.6-21.8C653.5,836.8,584.6,672.2,602.8,684.1z"/>
					<path class="st15" d="M588.1,687.5l-13.2-8.7c-8.1-5.2-18.2-3.6-23.7,4.7l0,0c-5.4,8.4-2.8,18.2,5.2,23.5l13.3,8.6l9.1-14.2
						l0,0L588.1,687.5z"/>
					<path class="st7" d="M710.4,929.9c0,0-33.1-12.2-63.5-52.8c-29.3-39.1-31.2-110.3-58.3-139.6l144.8,15.8L710.4,929.9z"/>
				</g>
			</g>
		</g>
		<path class="st16" d="M298,2134.7l11.2-10.7l16.6,21.7l11-10.2l12.9,16.1v8.8c-1.3,5.7-1.9,11.7-1.9,17.8
			c0,45.7,37.1,82.8,82.8,82.8c45.4,0,82.2-36.6,82.7-81.9h20.9h378.5h115.6h68.8v-788.6l-67.9-20.2v-0.3l-152.6-45.3h-29.9
			l-10.1-11.6h-40.2v-111.4c75.2-29.9,137.8-103,173.4-187.4c0.6,0.2,1.2,0.4,1.8,0.6c36.7,11.1,78-18.5,92.4-66
			c14.4-47.6-3.6-95.1-40.3-106.2c-7.4-2.3-15.1-2.8-22.6-1.9c0-0.2,0-0.3,0-0.5c0,0,0,0,0,0c0-0.1,0-0.3,0-0.4
			c-0.2-2.9-0.5-5.7-0.8-8.5c-0.1-0.7-0.1-1.4-0.2-2.1c-0.3-2.5-0.6-4.9-0.9-7.4c-0.1-0.6-0.1-1.1-0.2-1.7c-0.8-6-1.8-12-3-17.9
			c-0.1-0.6-0.2-1.2-0.4-1.8c-0.5-2.4-1-4.8-1.6-7.2c-0.1-0.6-0.3-1.2-0.4-1.7c-1.4-5.8-2.9-11.6-4.6-17.3c-0.2-0.5-0.3-1-0.5-1.5
			c-0.4-1.3-0.8-2.6-1.2-3.9c24.4-22.2,39.9-53.8,40.5-89h0c0-0.1,0-0.2,0-0.3c0-0.1,0-0.2,0-0.3l0,0
			c-2-122.7-103.1-221.6-227.6-221.6c-74.1,0-140,35.1-181.5,89.4c-5.2-2.7-11.5-4.9-18.5-6.2c-18.7-3.6-35.4,0.2-38.4,8.5l24.8,4.8
			c-58.9,12.5-103.2,63.9-104,125.7h22.5c-0.6,0.8-1.2,1.6-1.8,2.4c-0.2,0.3-0.5,0.6-0.7,1c-1.5,2-2.9,4-4.3,6.1
			c-0.3,0.4-0.6,0.9-0.9,1.3c-1.6,2.3-3.1,4.7-4.7,7c0,0,0,0,0,0c-1.6,2.5-3.2,5-4.7,7.6c-0.2,0.3-0.3,0.5-0.5,0.8
			c-1.3,2.2-2.6,4.4-3.8,6.7c-0.3,0.5-0.5,1-0.8,1.5c-1.3,2.3-2.5,4.6-3.7,7c-0.1,0.2-0.2,0.4-0.3,0.6c-1.4,2.7-2.7,5.4-4,8.1
			c-0.1,0.1-0.1,0.3-0.2,0.4c-1.2,2.4-2.3,4.9-3.4,7.4c-0.2,0.5-0.5,1-0.7,1.6c-1,2.3-2,4.7-3,7c-0.1,0.3-0.3,0.7-0.4,1
			c-2.2,5.5-4.3,11-6.2,16.7c-0.2,0.5-0.4,1.1-0.5,1.6c-0.8,2.4-1.6,4.8-2.3,7.2c-0.1,0.5-0.3,0.9-0.4,1.4
			c-1.7,5.7-3.3,11.5-4.6,17.4c-0.1,0.5-0.2,1-0.4,1.5c-0.6,2.5-1.1,5-1.6,7.5c-0.1,0.5-0.2,1.1-0.3,1.6c-1.2,6-2.2,12-3,18.1
			c-0.1,0.5-0.1,0.9-0.2,1.4c-0.3,2.6-0.7,5.2-0.9,7.8c-0.1,0.6-0.1,1.2-0.2,1.8c-0.3,3.2-0.6,6.4-0.9,9.6
			c-7.6-0.9-15.2-0.4-22.6,1.9c-36.7,11.1-54.7,58.7-40.3,106.2c14.4,47.6,55.8,77.1,92.4,66c0.6-0.2,1.2-0.4,1.8-0.6
			c35.7,84.4,98.2,157.5,173.4,187.4v111.4h-40.2l-10.1,11.6h-28l-37.9,11.3v-0.4l-43.3,12.9v0l-141.2,42L41.7,1768.6L298,2134.7z
			 M349.7,1681v245.4l-83.4-122.9L349.7,1681z"/>
		<g class="st17">
			<rect x="736.6" y="85.8" class="st3" width="430.3" height="699.3"/>
			<g>
				<g>
					<path class="st12" d="M956.1,599c0,8.8-7.1,15.9-15.9,15.9h-177c-8.8,0-15.9-7.1-15.9-15.9v-23c0-8.8,7.1-15.9,15.9-15.9h177
						c8.8,0,15.9,7.1,15.9,15.9V599z"/>
					<polygon class="st12" points="774.6,613.1 760.8,623.2 760.8,613.1 					"/>
				</g>
				<g>
					<path class="st12" d="M1018.6,359.8c0,8.8-7.1,15.9-15.9,15.9H763.2c-8.8,0-15.9-7.1-15.9-15.9V314c0-8.8,7.1-15.9,15.9-15.9
						h239.5c8.8,0,15.9,7.1,15.9,15.9V359.8z"/>
					<polygon class="st12" points="774.6,374 760.8,384.1 760.8,374 					"/>
				</g>
				<g>
					<path class="st12" d="M916.6,252.9c0,8.8-7.1,15.9-15.9,15.9H763.2c-8.8,0-15.9-7.1-15.9-15.9V207c0-8.8,7.1-15.9,15.9-15.9
						h137.5c8.8,0,15.9,7.1,15.9,15.9V252.9z"/>
					<polygon class="st12" points="774.6,267 760.8,277.1 760.8,267 					"/>
				</g>
				<g>
					<path class="st0" d="M947.4,723.6c0,8.8,7.1,15.9,15.9,15.9h177c8.8,0,15.9-7.1,15.9-15.9v-23c0-8.8-7.1-15.9-15.9-15.9h-177
						c-8.8,0-15.9,7.1-15.9,15.9V723.6z"/>
					<polygon class="st0" points="1128.9,737.7 1142.6,747.8 1142.6,737.7 					"/>
				</g>
				<g>
					<path class="st0" d="M947.4,521.7c0,8.8,7.1,15.9,15.9,15.9h177c8.8,0,15.9-7.1,15.9-15.9v-96c0-8.8-7.1-15.9-15.9-15.9h-177
						c-8.8,0-15.9,7.1-15.9,15.9V521.7z"/>
					<polygon class="st0" points="1128.9,535.8 1142.6,545.9 1142.6,535.8 					"/>
				</g>
				<g>
					<path class="st0" d="M991.4,162.8c0,8.8,7.1,15.9,15.9,15.9h133c8.8,0,15.9-7.1,15.9-15.9V139c0-8.8-7.1-15.9-15.9-15.9h-133
						c-8.8,0-15.9,7.1-15.9,15.9V162.8z"/>
					<polygon class="st0" points="1128.9,176.9 1142.6,187 1142.6,176.9 					"/>
				</g>
				<g>
					<polygon class="st12" points="774.2,663.6 760.5,673.6 760.5,663.6 					"/>
					<path class="st12" d="M922.3,651c0,8-6.5,14.5-14.5,14.5H761.9c-8,0-14.5-6.5-14.5-14.5l0,0c0-8,6.5-14.5,14.5-14.5h145.9
						C915.8,636.5,922.3,643,922.3,651L922.3,651z"/>
				</g>
			</g>
		</g>
	</g>
	<path id="left_x5F_cloud" class="st3" d="M246.9,117.4c6.6-5.7,14.3,0.1,15.6,7.6c11.5-9.1,15.9,1.3,22.9,8.3
		c9.1,9.2,30.4,1.9,42,7.3c-27.9,3.9-65.7,5.9-93.7,4.6c-13.7-0.7-27.5-1.2-41-1.9c-13.5-0.7-27.2-3.3-40.5-0.1
		c11.5-6,26.1-0.5,36.9-7.6c7.3-4.7,8.9-13.1,13-20.1C214.4,94.4,237.3,96.2,246.9,117.4z"/>
</g>
</svg>
