<?xml version="1.0" encoding="utf-8"?>
<!-- Generator: Adobe Illustrator 24.0.1, SVG Export Plug-In . SVG Version: 6.00 Build 0)  -->
<svg version="1.1" id="Layer_1" focusable="false" xmlns="http://www.w3.org/2000/svg" xmlns:xlink="http://www.w3.org/1999/xlink"
	 x="0px" y="0px" viewBox="0 0 512 512" style="enable-background:new 0 0 512 512;" xml:space="preserve">
<style type="text/css">
	.st0{fill:#719F7B;}
</style>
<path class="st0" d="M464,64H48C21.5,64,0,85.5,0,112v288c0,26.5,21.5,48,48,48h416c26.5,0,48-21.5,48-48V112
	C512,85.5,490.5,64,464,64z M458,400H54c-3.3,0-6-2.7-6-6V118c0-3.3,2.7-6,6-6h404c3.3,0,6,2.7,6,6v276C464,397.3,461.3,400,458,400
	z M128,152c-22.1,0-40,17.9-40,40s17.9,40,40,40s40-17.9,40-40S150.1,152,128,152z M96,352h320v-80l-87.5-87.5
	c-4.7-4.7-12.3-4.7-17,0L192,304l-39.5-39.5c-4.7-4.7-12.3-4.7-17,0L96,304V352z"/>
</svg>
